Normalized EMG Linear Envelopes
nRows=21
nColumns=17

endheader
time	        VM	        VL	        RF	       GRA	        TA	   ADDLONG	   SEMIMEM	      BFLH	        GM	        GL	       TFL	   GLUTMAX	   GLUTMED	      PIRI	    OBTINT	        QF	
2.9625	  0.027829	  0.048935	  0.184927	  0.041722	  0.172227	  0.033147	  0.002328	  0.012047	  0.011891	  0.015829	  0.064915	  0.023328	  0.104262	  0.209637	  0.237557	  0.026756	
2.963	  0.027438	  0.049231	  0.185428	  0.040785	  0.171946	  0.032764	  0.001935	  0.011552	  0.011856	  0.015790	  0.063798	  0.023220	  0.104174	  0.208522	  0.238718	  0.026828	
2.9635	  0.027050	  0.049526	  0.185923	  0.039866	  0.171659	  0.032382	  0.001549	  0.011063	  0.011820	  0.015753	  0.062698	  0.023112	  0.104074	  0.207386	  0.239901	  0.026904	
2.964	  0.026665	  0.049821	  0.186409	  0.038964	  0.171366	  0.032003	  0.001170	  0.010580	  0.011784	  0.015717	  0.061614	  0.023005	  0.103962	  0.206230	  0.241105	  0.026982	
2.9645	  0.026283	  0.050114	  0.186886	  0.038079	  0.171068	  0.031625	  0.000798	  0.010103	  0.011747	  0.015682	  0.060545	  0.022898	  0.103837	  0.205054	  0.242328	  0.027064	
2.965	  0.025904	  0.050406	  0.187351	  0.037212	  0.170764	  0.031250	  0.000435	  0.009632	  0.011709	  0.015648	  0.059492	  0.022793	  0.103701	  0.203857	  0.243569	  0.027149	
2.9655	  0.025528	  0.050696	  0.187805	  0.036363	  0.170454	  0.030877	  0.000080	  0.009167	  0.011670	  0.015616	  0.058455	  0.022688	  0.103552	  0.202639	  0.244825	  0.027238	
2.966	  0.025156	  0.050985	  0.188244	  0.035531	  0.170139	  0.030507	  0.000000	  0.008709	  0.011631	  0.015584	  0.057432	  0.022584	  0.103391	  0.201399	  0.246096	  0.027331	
2.9665	  0.024787	  0.051271	  0.188669	  0.034717	  0.169817	  0.030140	  0.000000	  0.008258	  0.011590	  0.015554	  0.056425	  0.022482	  0.103219	  0.200139	  0.247378	  0.027427	
2.967	  0.024421	  0.051554	  0.189077	  0.033921	  0.169489	  0.029775	  0.000000	  0.007814	  0.011548	  0.015525	  0.055432	  0.022380	  0.103035	  0.198857	  0.248670	  0.027527	
2.9675	  0.024059	  0.051835	  0.189466	  0.033142	  0.169155	  0.029414	  0.000000	  0.007378	  0.011506	  0.015496	  0.054455	  0.022279	  0.102840	  0.197556	  0.249971	  0.027631	
2.968	  0.023700	  0.052113	  0.189836	  0.032381	  0.168813	  0.029056	  0.000000	  0.006949	  0.011462	  0.015469	  0.053491	  0.022179	  0.102634	  0.196234	  0.251277	  0.027739	
2.9685	  0.023345	  0.052387	  0.190184	  0.031638	  0.168465	  0.028701	  0.000000	  0.006527	  0.011417	  0.015442	  0.052542	  0.022080	  0.102418	  0.194893	  0.252588	  0.027851	
2.969	  0.022993	  0.052658	  0.190509	  0.030913	  0.168108	  0.028350	  0.000000	  0.006114	  0.011372	  0.015417	  0.051606	  0.021983	  0.102192	  0.193532	  0.253899	  0.027968	
2.9695	  0.022646	  0.052925	  0.190810	  0.030205	  0.167744	  0.028003	  0.000000	  0.005709	  0.011325	  0.015392	  0.050684	  0.021886	  0.101956	  0.192154	  0.255210	  0.028089	
2.97	  0.022301	  0.053188	  0.191086	  0.029516	  0.167372	  0.027659	  0.000000	  0.005313	  0.011277	  0.015368	  0.049776	  0.021791	  0.101711	  0.190758	  0.256518	  0.028215	
2.9705	  0.021961	  0.053447	  0.191334	  0.028844	  0.166992	  0.027319	  0.000000	  0.004925	  0.011228	  0.015344	  0.048881	  0.021696	  0.101456	  0.189345	  0.257820	  0.028345	
2.971	  0.021625	  0.053700	  0.191554	  0.028190	  0.166604	  0.026983	  0.000000	  0.004547	  0.011177	  0.015322	  0.048000	  0.021603	  0.101193	  0.187915	  0.259114	  0.028481	
2.9715	  0.021292	  0.053949	  0.191746	  0.027553	  0.166206	  0.026651	  0.000000	  0.004177	  0.011126	  0.015299	  0.047131	  0.021512	  0.100920	  0.186471	  0.260397	  0.028621	
2.972	  0.020963	  0.054193	  0.191907	  0.026935	  0.165800	  0.026323	  0.000000	  0.003818	  0.011073	  0.015278	  0.046275	  0.021421	  0.100640	  0.185012	  0.261668	  0.028767	
2.9725	  0.020638	  0.054431	  0.192037	  0.026334	  0.165385	  0.026000	  0.000000	  0.003467	  0.011019	  0.015257	  0.045432	  0.021332	  0.100352	  0.183541	  0.262922	  0.028918	
